<svg version="1.1" id="Layer_1" xmlns="http://www.w3.org/2000/svg" xmlns:xlink="http://www.w3.org/1999/xlink" x="0px" y="0px"
	 width="100%" viewBox="0 0 200 200" enable-background="new 0 0 200 200" xml:space="preserve">
<path fill="#FEFEFE" opacity="1.000000" stroke="none" 
	d="
M120.000000,201.000000 
	C81.190636,201.000000 42.881195,200.968369 4.572079,201.065872 
	C1.797696,201.072952 0.894980,200.766983 0.901492,197.576096 
	C1.033043,133.116684 1.025398,68.656906 0.916463,4.197427 
	C0.911597,1.318277 1.633832,0.926727 4.298746,0.930416 
	C68.758286,1.019645 133.218018,1.018304 197.677567,0.933995 
	C200.293381,0.930574 201.091583,1.243683 201.086456,4.173738 
	C200.973328,68.799774 200.979980,133.426071 201.072159,198.052170 
	C201.075897,200.674973 200.327438,201.063263 197.951294,201.055145 
	C172.134430,200.966934 146.317154,201.000000 120.000000,201.000000 
z"/>
<path fill="#151515" opacity="1.000000" stroke="none" 
	d="
M54.443359,102.152466 
	C54.440300,104.949768 54.328884,107.285187 54.464500,109.606178 
	C54.619568,112.260010 54.370995,113.897934 50.864258,113.860710 
	C47.444359,113.824402 47.653313,112.029930 47.673611,109.753716 
	C47.727016,103.765709 47.847649,97.771294 47.633526,91.790459 
	C47.500187,88.066208 50.246040,87.306046 51.799183,88.996933 
	C54.082561,91.482819 55.108570,89.962257 56.868515,89.029831 
	C60.055691,87.341278 63.388706,87.311226 66.232353,89.623283 
	C67.868393,90.953514 68.650970,91.222961 70.634239,89.870399 
	C77.362534,85.281845 84.626244,89.156059 84.990410,97.352921 
	C85.174820,101.503906 84.969032,105.670807 85.058945,109.827942 
	C85.109436,112.162308 85.186729,113.869553 81.827423,113.866394 
	C78.528702,113.863289 77.923721,112.601341 78.068924,109.732933 
	C78.262062,105.917381 78.113983,102.082886 78.062256,98.257210 
	C78.029190,95.812248 77.153084,93.990295 74.325699,94.015778 
	C71.751297,94.038971 70.180733,95.534706 70.023125,97.957253 
	C69.753624,102.099892 69.677284,106.271721 69.833260,110.419510 
	C69.934906,113.122719 68.881332,113.783295 66.367569,113.821587 
	C63.829247,113.860260 62.759563,113.225708 62.930336,110.498543 
	C63.148243,107.018623 63.008320,103.514450 62.974388,100.021194 
	C62.948353,97.340477 63.156822,94.259644 59.397179,94.049240 
	C55.662598,93.840233 54.831795,96.684982 54.490894,99.690804 
	C54.416290,100.348587 54.456696,101.019402 54.443359,102.152466 
z"/>
<path fill="#151515" opacity="1.000000" stroke="none" 
	d="
M104.636475,87.972580 
	C113.601112,90.654518 117.381294,97.016205 115.154182,105.001579 
	C112.969261,112.835686 106.272026,115.749924 96.208679,113.201660 
	C95.346703,114.912506 95.798035,116.753670 95.818382,118.514610 
	C95.847290,121.015854 95.972023,122.900818 92.342247,122.936729 
	C88.708092,122.972679 88.850761,121.123940 88.871208,118.609108 
	C88.944191,109.631821 88.878532,100.653488 88.914032,91.675735 
	C88.919388,90.320930 88.710121,87.656624 90.733345,88.668373 
	C95.576698,91.090401 99.698242,86.928146 104.636475,87.972580 
z"/>
<path fill="#151515" opacity="1.000000" stroke="none" 
	d="
M37.979897,107.006302 
	C40.422035,107.122528 42.669395,106.694481 44.274864,107.517929 
	C45.700436,108.249100 44.812721,110.550102 44.820560,112.146042 
	C44.828743,113.811440 43.428631,113.737640 42.269066,113.741341 
	C37.440342,113.756744 32.607124,113.618988 27.784517,113.790024 
	C25.209053,113.881355 24.758291,112.724190 24.778881,110.511574 
	C24.861002,101.687157 24.894094,92.860405 24.765793,84.037117 
	C24.730137,81.584976 25.563740,80.911835 27.912870,80.997330 
	C32.402733,81.160751 36.911304,81.210022 41.395489,80.981064 
	C44.128574,80.841522 44.348045,82.191254 44.248447,84.275215 
	C44.160152,86.122757 44.535423,88.065361 41.564972,87.772202 
	C39.586079,87.576904 37.557259,87.889633 35.577850,87.696938 
	C32.910172,87.437248 31.822027,88.112946 31.805723,91.129120 
	C31.788338,94.345337 33.540455,94.069000 35.586163,94.000465 
	C36.916786,93.955894 38.256157,94.072144 39.580845,93.972824 
	C41.836708,93.803688 43.270344,94.031509 43.160931,97.036240 
	C43.067112,99.612556 42.464149,100.736847 39.789520,100.372414 
	C38.645267,100.216507 37.461845,100.340477 36.296322,100.349953 
	C34.066536,100.368080 31.902941,99.695320 31.770327,103.562881 
	C31.622126,107.884987 34.169121,106.942467 36.506912,107.005157 
	C36.839684,107.014091 37.172901,107.006401 37.979897,107.006302 
z"/>
<path fill="#141414" opacity="1.000000" stroke="none" 
	d="
M130.501984,92.533363 
	C135.973053,87.630264 142.319122,86.521912 147.653015,89.305046 
	C152.466919,91.816864 155.291595,97.182236 154.571411,102.581558 
	C153.817291,108.235336 150.657959,112.053024 145.283737,113.772209 
	C139.651825,115.573822 133.303940,113.475311 130.050232,109.080635 
	C126.673164,104.519333 126.747993,98.580826 130.501984,92.533363 
z"/>
<path fill="#161616" opacity="1.000000" stroke="none" 
	d="
M170.003769,96.902092 
	C170.859116,94.690506 171.753632,92.889862 172.337296,90.993553 
	C173.513947,87.170647 176.855377,88.082245 178.936798,88.716728 
	C181.803787,89.590660 179.203705,91.755867 178.671402,93.005653 
	C175.356857,100.787964 171.812790,108.473526 168.281540,116.162117 
	C166.388031,120.284843 163.213226,122.631104 158.562073,122.811455 
	C156.908386,122.875572 155.405197,122.782990 155.720367,120.567574 
	C155.939911,119.024307 154.690994,117.047264 157.755280,116.396500 
	C163.746658,115.124123 164.451965,113.327332 161.934326,107.800652 
	C159.665802,102.820885 157.253769,97.902687 155.140366,92.858734 
	C154.617081,91.609848 152.275009,89.552498 154.585892,88.806984 
	C156.621002,88.150429 159.937119,87.020859 161.459671,90.535454 
	C163.227600,94.616478 165.020905,98.686531 167.165710,103.590157 
	C168.305954,100.956673 169.104141,99.113213 170.003769,96.902092 
z"/>
<path fill="#181818" opacity="1.000000" stroke="none" 
	d="
M125.025299,107.843864 
	C124.765800,110.787376 126.430794,114.271080 121.334244,113.856140 
	C118.643761,113.637093 118.005447,112.779991 118.037552,110.286774 
	C118.155434,101.133339 118.217949,91.974792 118.022491,82.824127 
	C117.955917,79.707314 119.315186,79.392334 121.880241,79.316132 
	C124.729057,79.231491 125.100922,80.499771 125.067314,82.896797 
	C124.952965,91.051559 125.025032,99.208931 125.025299,107.843864 
z"/>
<path fill="#3EA16C" opacity="1.000000" stroke="none" 
	d="
M114.526596,123.652954 
	C112.370613,122.634895 110.431046,121.975166 108.852783,120.821251 
	C107.641541,119.935677 104.893768,119.294693 106.678238,116.854286 
	C108.215538,114.751930 109.580444,116.690140 110.848610,117.524330 
	C114.580627,119.979271 118.655365,121.218643 123.105110,120.826302 
	C126.627335,120.515739 129.908508,119.359474 132.743225,117.153702 
	C134.156693,116.053833 135.728409,115.112984 136.878006,117.195480 
	C137.947495,119.132866 135.878632,119.743065 134.791351,120.500656 
	C128.705063,124.741394 122.049179,125.833878 114.526596,123.652954 
z"/>
<path fill="#F5F5F5" opacity="1.000000" stroke="none" 
	d="
M95.561234,98.752411 
	C97.391174,94.902840 100.172394,93.533577 103.886307,94.508171 
	C106.961044,95.315033 108.639648,97.594002 108.812363,100.700035 
	C108.985481,103.813042 107.500282,106.159904 104.591431,107.413467 
	C99.343636,109.674988 95.093559,105.809006 95.561234,98.752411 
z"/>
<path fill="#F5F5F5" opacity="1.000000" stroke="none" 
	d="
M138.059616,107.219116 
	C134.044266,104.595482 133.619431,101.171486 135.332642,97.531853 
	C136.562561,94.918976 139.094452,93.819893 141.961945,94.255676 
	C145.276169,94.759346 147.220840,96.895164 147.695496,100.186226 
	C148.444870,105.382317 144.414291,108.469597 138.059616,107.219116 
z"/>
</svg>